<svg id="レイヤー_1" data-name="レイヤー 1" xmlns="http://www.w3.org/2000/svg" viewBox="0 0 484.18 489.62"><defs><style>.cls-1{fill:#a79500;}</style></defs><title>logo_1</title><path class="cls-1" d="M334.5,5.26H301.05V24.75L333,227.5a38.25,38.25,0,0,1,7.63-.82c26.26,0,47.19,27,49.87,62.67h45.18Z" transform="translate(-7.82 -5.26)"/><path class="cls-1" d="M315.38,236.14c.93-.77,1.89-1.48,2.85-2.15L286.56,33.2H270.69L278.35,200A70.73,70.73,0,0,1,315.38,236.14Z" transform="translate(-7.82 -5.26)"/><path class="cls-1" d="M262.48,195.27,255.06,33.2h-10.3l-7.43,162.07a69.93,69.93,0,0,1,25.15,0Z" transform="translate(-7.82 -5.26)"/><path class="cls-1" d="M184.44,236.14a70.62,70.62,0,0,1,37-36.13L229.11,33.2H213.26L181.59,234C182.55,234.66,183.51,235.37,184.44,236.14Z" transform="translate(-7.82 -5.26)"/><path class="cls-1" d="M159.14,226.68a38.52,38.52,0,0,1,7.65.82l32-202.75V5.26H165.32L64.12,289.35h45.16C112,253.64,132.9,226.68,159.14,226.68Z" transform="translate(-7.82 -5.26)"/><path class="cls-1" d="M340.66,242.33c-8.07,0-16,4.72-22.32,13.31a7.81,7.81,0,0,1-13.93-3c-5.33-24.85-28.25-42.88-54.51-42.88s-49.17,18-54.49,42.88a7.81,7.81,0,0,1-13.93,3c-6.32-8.59-14.27-13.31-22.34-13.31-17.06,0-31.69,20.83-34.16,47H374.85C372.38,263.16,357.72,242.33,340.66,242.33Z" transform="translate(-7.82 -5.26)"/><polygon class="cls-1" points="0 372.11 10.88 372.11 10.88 402.81 19.96 402.81 19.96 372.11 30.85 372.11 30.85 364 0 364 0 372.11"/><path class="cls-1" d="M89.25,369.26H81.86L65.28,407.6l-.2.47h10L78.27,400H92.63l3.2,7.84.09.22h10.23L89.34,369.46Zm.25,22.94H81.17l4.14-10.58Z" transform="translate(-7.82 -5.26)"/><polygon class="cls-1" points="163.36 364.55 163.91 364 151.97 364 137.64 379.32 137.64 364 128.56 364 128.56 402.81 137.64 402.81 137.64 385.27 152.57 402.69 152.67 402.81 165.32 402.81 146.6 382.06 163.36 364.55"/><rect class="cls-1" x="193.97" y="364" width="9.07" height="38.81"/><polygon class="cls-1" points="258.85 388.37 250.25 364 236.96 364 236.96 402.81 246.04 402.81 246.04 374.97 255.14 402.59 255.22 402.81 262.11 402.81 271.66 374.93 271.66 402.81 280.74 402.81 280.74 364 267.5 364 258.85 388.37"/><path class="cls-1" d="M356.45,373.8a19.49,19.49,0,0,0-6.63-4.1,25.69,25.69,0,0,0-16.73,0,19.3,19.3,0,0,0-6.63,4.1,18.19,18.19,0,0,0-4.36,6.43,23.58,23.58,0,0,0,0,16.87,18.19,18.19,0,0,0,4.36,6.43,18.79,18.79,0,0,0,6.63,4.07,25.18,25.18,0,0,0,16.73,0,19,19,0,0,0,6.63-4.07,18.59,18.59,0,0,0,4.36-6.43,23.31,23.31,0,0,0,0-16.87A18.59,18.59,0,0,0,356.45,373.8Zm-15,26.8a12.6,12.6,0,0,1-4.75-.87,11.06,11.06,0,0,1-3.65-2.49,10.9,10.9,0,0,1-2.31-3.78,13.52,13.52,0,0,1-.81-4.81,13.7,13.7,0,0,1,.81-4.78,10.52,10.52,0,0,1,6-6.27,13.09,13.09,0,0,1,9.49,0,10.78,10.78,0,0,1,3.63,2.49,11,11,0,0,1,2.33,3.78,13.7,13.7,0,0,1,.8,4.78,13.52,13.52,0,0,1-.8,4.81,10.94,10.94,0,0,1-2.33,3.78,10.78,10.78,0,0,1-3.63,2.49A12.55,12.55,0,0,1,341.46,400.6Z" transform="translate(-7.82 -5.26)"/><polygon class="cls-1" points="383.03 372.11 393.92 372.11 393.92 402.81 402.98 402.81 402.98 372.11 413.87 372.11 413.87 364 383.03 364 383.03 372.11"/><path class="cls-1" d="M486.07,373.8a18.71,18.71,0,0,0-6.63-4.1,25.63,25.63,0,0,0-16.71,0,19.34,19.34,0,0,0-6.64,4.1,18.89,18.89,0,0,0-4.37,6.43,23.73,23.73,0,0,0,0,16.87,18.49,18.49,0,0,0,11,10.5,25.12,25.12,0,0,0,16.71,0,18.51,18.51,0,0,0,11-10.5,23.58,23.58,0,0,0,0-16.87A18.61,18.61,0,0,0,486.07,373.8Zm-15,26.8a12.49,12.49,0,0,1-4.75-.87,10.6,10.6,0,0,1-6-6.27,13.2,13.2,0,0,1-.82-4.81,13.41,13.41,0,0,1,.82-4.78,10.6,10.6,0,0,1,6-6.27,13.07,13.07,0,0,1,9.48,0,11,11,0,0,1,3.63,2.49,10.72,10.72,0,0,1,2.32,3.78,13.87,13.87,0,0,1,.81,4.78,13.64,13.64,0,0,1-.81,4.81,10.63,10.63,0,0,1-2.32,3.78,10.88,10.88,0,0,1-3.63,2.49A12.57,12.57,0,0,1,471.1,400.6Z" transform="translate(-7.82 -5.26)"/><path class="cls-1" d="M105.43,482.23l-.19.3a8.82,8.82,0,0,1-3.16,2.89,9,9,0,0,1-4.44,1.05,9.38,9.38,0,0,1-4.08-.88,10.32,10.32,0,0,1-3.32-2.49A11.76,11.76,0,0,1,88,479.32a14.57,14.57,0,0,1,0-9.58A11.62,11.62,0,0,1,90.27,466a10.38,10.38,0,0,1,3.39-2.49,10.17,10.17,0,0,1,4.26-.89,9.84,9.84,0,0,1,4,.78,8,8,0,0,1,2.92,2.22l.21.25,6.71-5.47.27-.22-.21-.25a14.11,14.11,0,0,0-2.86-2.72,16.48,16.48,0,0,0-3.35-1.76,18.09,18.09,0,0,0-3.5-.95,20.55,20.55,0,0,0-3.42-.3,24.11,24.11,0,0,0-8.37,1.41,19.62,19.62,0,0,0-6.63,4.09,18.44,18.44,0,0,0-4.36,6.45,23.39,23.39,0,0,0,0,16.85,18.22,18.22,0,0,0,4.36,6.44,19,19,0,0,0,6.63,4.07,23.39,23.39,0,0,0,8.37,1.43,19.62,19.62,0,0,0,7.78-1.62,15,15,0,0,0,6.28-5.14l.19-.26-7.27-5.44Z" transform="translate(-7.82 -5.26)"/><path class="cls-1" d="M177.56,459.65a19.43,19.43,0,0,0-6.63-4.09,25.46,25.46,0,0,0-16.71,0,19.25,19.25,0,0,0-6.65,4.09,18.57,18.57,0,0,0-4.36,6.45,23.53,23.53,0,0,0,0,16.85,18.4,18.4,0,0,0,11,10.51,25.12,25.12,0,0,0,16.71,0,18.79,18.79,0,0,0,6.63-4.07,18.38,18.38,0,0,0,4.37-6.44,23.39,23.39,0,0,0,0-16.85A18.33,18.33,0,0,0,177.56,459.65Zm-15,26.82a12.38,12.38,0,0,1-4.73-.88,10.4,10.4,0,0,1-3.64-2.49,10.89,10.89,0,0,1-2.33-3.78,13.35,13.35,0,0,1-.81-4.78,13.62,13.62,0,0,1,.81-4.8A11,11,0,0,1,154.2,466a10.4,10.4,0,0,1,3.64-2.49,12.49,12.49,0,0,1,4.73-.89,12.68,12.68,0,0,1,4.75.89A10.73,10.73,0,0,1,171,466a11,11,0,0,1,2.32,3.79,14.4,14.4,0,0,1,0,9.58A10.86,10.86,0,0,1,171,483.1a10.73,10.73,0,0,1-3.63,2.49A12.6,12.6,0,0,1,162.57,486.47Z" transform="translate(-7.82 -5.26)"/><polygon class="cls-1" points="207.97 488.67 217.05 488.67 217.05 473.79 232.94 473.79 232.94 465.37 217.05 465.37 217.05 458.29 234.24 458.29 234.24 449.85 207.97 449.85 207.97 488.67"/><polygon class="cls-1" points="266.86 488.67 275.95 488.67 275.95 473.79 291.84 473.79 291.84 465.37 275.95 465.37 275.95 458.29 293.14 458.29 293.14 449.85 266.86 449.85 266.86 488.67"/><polygon class="cls-1" points="334.82 473.14 351.37 473.14 351.37 464.71 334.82 464.71 334.82 458.29 352.34 458.29 352.34 449.85 325.74 449.85 325.74 488.67 353.31 488.67 353.31 480.23 334.82 480.23 334.82 473.14"/><polygon class="cls-1" points="395.71 480.23 395.71 473.14 412.27 473.14 412.27 464.71 395.71 464.71 395.71 458.29 413.22 458.29 413.22 449.85 386.64 449.85 386.64 488.67 414.19 488.67 414.19 480.23 395.71 480.23"/></svg>